HIERARCHY
ROOT Hips
{
	OFFSET 0.000000 8.830580 0.000000
	CHANNELS 6 Xposition Yposition Zposition Zrotation Yrotation Xrotation 
	JOINT Spine
	{
		OFFSET 0.000000 0.010000 0.000000
		CHANNELS 3 Zrotation Yrotation Xrotation
		JOINT Spine1
		{
			OFFSET 0.000000 2.459130 0.000000
			CHANNELS 3 Zrotation Yrotation Xrotation
			JOINT Neck
			{
				OFFSET 0.000000 2.484630 0.000000
				CHANNELS 3 Zrotation Yrotation Xrotation
				JOINT Head_virtual
				{
					OFFSET 0.000000 0.000000 0.000000
					CHANNELS 3 Zrotation Yrotation Xrotation
					JOINT Head
					{
						OFFSET 0.000000 0.927525 0.000000
						CHANNELS 3 Zrotation Yrotation Xrotation
						End Site
						{
							OFFSET 0.000000 0.000000 0.000000
						}
					}
				}
				JOINT LeftUpArm_virtual
				{
					OFFSET 0.000000 0.000000 0.000000
					CHANNELS 3 Zrotation Yrotation Xrotation
					JOINT LeftUpArm
					{
						OFFSET 1.248820 0.000000 0.000000
						CHANNELS 3 Zrotation Yrotation Xrotation
						JOINT LeftForeArm
						{
							OFFSET 2.597580 0.000000 0.000000
							CHANNELS 3 Zrotation Yrotation Xrotation
							JOINT LeftHand
							{
								OFFSET 2.455420 0.000000 0.000000
								CHANNELS 3 Zrotation Yrotation Xrotation
								End Site
								{
									OFFSET 0.000000 0.000000 0.000000
								}
							}
						}
					}
				}
				JOINT RightUpArm_virtual
				{
					OFFSET -0.000000 -0.000000 -0.000000
					CHANNELS 3 Zrotation Yrotation Xrotation
					JOINT RightUpArm
					{
						OFFSET -1.248820 -0.000000 -0.000000
						CHANNELS 3 Zrotation Yrotation Xrotation
						JOINT RightForeArm
						{
							OFFSET -2.597580 -0.000000 -0.000000
							CHANNELS 3 Zrotation Yrotation Xrotation
							JOINT RightHand
							{
								OFFSET -2.455420 -0.000000 -0.000000
								CHANNELS 3 Zrotation Yrotation Xrotation
								End Site
								{
									OFFSET 0.000000 0.000000 0.000000
								}
							}
						}
					}
				}
			}
		}
	}
	JOINT LeftUpLeg
	{
		OFFSET 1.271939 0.000000 0.000000
		CHANNELS 3 Zrotation Yrotation Xrotation
		JOINT LeftLowLeg
		{
			OFFSET 0.000000 -4.342910 0.000000
			CHANNELS 3 Zrotation Yrotation Xrotation
			JOINT LeftFoot
			{
				OFFSET 0.000000 -4.487670 0.000000
				CHANNELS 3 Zrotation Yrotation Xrotation
				JOINT LeftToeBase
				{
					OFFSET 0.000000 0.000000 1.515070
					CHANNELS 3 Zrotation Yrotation Xrotation
					End Site
					{
						OFFSET 0.000000 0.000000 0.000000
					}
				}
			}
		}
	}
	JOINT RightUpLeg
	{
		OFFSET -1.271939 0.000000 0.000000
		CHANNELS 3 Zrotation Yrotation Xrotation
		JOINT RightLowLeg
		{
			OFFSET 0.000000 -4.342910 0.000000
			CHANNELS 3 Zrotation Yrotation Xrotation
			JOINT RightFoot
			{
				OFFSET 0.000000 -4.487670 0.000000
				CHANNELS 3 Zrotation Yrotation Xrotation
				JOINT RightToeBase
				{
					OFFSET 0.000000 0.000000 1.515070
					CHANNELS 3 Zrotation Yrotation Xrotation
					End Site
					{
						OFFSET 0.000000 0.000000 0.000000
					}
				}
			}
		}
	}
}
MOTION
Frames: 17
Frame Time: 0.041667
-13.176089 8.970364 25.128605 -174.639900 -42.275056 -179.572002 2.865901 -6.203339 -4.559624 0.603652 3.657466 16.230668 0.000000 0.000000 0.000000 14.899381 -4.218673 -7.917100 -1.028019 6.607764 -87.542355 -24.343399 1.697680 5.367004 -43.963501 -10.432300 -42.751499 180.000000 -43.479996 180.000000 54.871601 32.083599 -7.977740 28.138300 -5.275080 -0.252991 40.725601 11.406500 -41.936600 180.000000 41.606003 180.000000 -60.974998 -12.958100 -18.140699 7.732616 -2.249383 -27.575854 0.000000 0.000000 45.978401 -17.718212 5.137402 -3.427887 0.000000 0.000000 -26.160400 8.305109 5.875512 -13.966447 0.000000 0.000000 25.106001 25.527684 -7.575351 -8.228003 0.000000 0.000000 -19.425980 
-13.151923 8.973929 25.179817 -174.724690 -42.391530 -178.011808 2.943763 -6.216319 -4.618474 0.565706 3.642979 15.197848 0.000000 0.000000 0.000000 15.218760 -4.112718 -7.424896 -1.123963 6.735781 -87.318280 -24.290501 1.780910 5.065002 -43.596199 -10.380200 -43.397499 180.000000 -43.852005 180.000000 54.352699 31.928600 -9.109970 28.033899 -5.552010 -0.790009 41.005501 11.240400 -43.295502 180.000000 43.608002 180.000000 -57.751400 -14.471500 -20.825600 7.768572 -2.497638 -29.042419 0.000000 0.000000 45.949501 -17.261097 5.648803 -3.724311 0.000000 0.000000 -26.174500 7.933269 5.837956 -15.728169 0.000000 0.000000 24.928900 25.516031 -7.452077 -7.880276 0.000000 0.000000 -19.288410 
-13.133760 8.977862 25.230173 -174.793063 -42.383410 -176.771460 3.075877 -6.121207 -4.508246 0.515114 3.698013 14.361743 0.000000 0.000000 0.000000 15.332340 -4.062292 -7.465056 -1.046544 6.819520 -87.164893 -24.092899 1.926290 4.895996 -43.148701 -10.575300 -43.685299 180.000000 -43.973999 -180.000000 53.711700 32.468899 -9.578050 28.118900 -5.774980 -1.639008 40.766998 10.832700 -43.917702 180.000000 44.813995 180.000000 -55.629101 -13.880400 -23.465599 7.848659 -2.830769 -30.074880 0.000000 0.000000 45.971699 -16.987469 5.798295 -3.880886 0.000000 0.000000 -26.196100 7.570115 6.027965 -17.128507 0.000000 0.000000 24.699600 25.774176 -7.371399 -7.557318 0.000000 0.000000 -19.395890 
-13.121915 8.981381 25.278855 -174.886256 -42.230214 -175.672671 2.986991 -6.036001 -4.540133 1.007695 3.931461 14.044726 0.000000 0.000000 0.000000 15.170409 -4.234091 -8.164813 -0.856614 6.730276 -87.004230 -24.102100 1.815150 4.572998 -42.729099 -10.564500 -43.773701 -180.000000 -43.639999 180.000000 53.595299 32.195000 -10.329600 27.839001 -5.843010 -2.165985 40.418999 10.573600 -44.607800 -180.000000 44.460007 -180.000000 -55.507801 -13.061200 -24.394400 7.917975 -3.130029 -30.801343 0.000000 0.000000 45.986599 -16.896968 5.584988 -3.919736 0.000000 0.000000 -26.364600 7.175334 6.296507 -18.355741 0.000000 0.000000 24.503099 26.039994 -7.256557 -7.265504 0.000000 0.000000 -19.351360 
-13.115966 8.985231 25.326583 -175.026302 -41.968996 -174.723648 3.000539 -5.821422 -4.379168 1.151233 4.173455 13.498468 0.000000 0.000000 0.000000 15.205089 -4.438797 -8.764932 -0.730266 6.679272 -86.917080 -23.953100 1.693410 4.889008 -42.220299 -10.599200 -44.381401 180.000000 -43.033997 -180.000000 52.733898 32.178299 -11.523600 27.850100 -5.843660 -1.562012 39.616199 10.846200 -45.996498 -180.000000 43.664001 -180.000000 -56.041401 -11.734500 -24.225300 7.927090 -3.391565 -31.212285 0.000000 0.000000 45.955502 -16.941785 5.263008 -3.939032 0.000000 0.000000 -26.462800 6.750984 6.524810 -19.400341 0.000000 0.000000 24.354401 26.198553 -7.109218 -6.957450 0.000000 0.000000 -19.358840 
-13.117109 8.989712 25.373928 -175.233208 -41.646881 -173.722701 2.959123 -5.639455 -4.330881 1.259878 4.400520 12.895266 0.000000 0.000000 0.000000 15.193581 -4.566714 -9.314589 -0.623028 6.658928 -86.712856 -23.764601 1.606620 5.329010 -41.904999 -10.649400 -44.750999 -180.000000 -42.565994 180.000000 52.180000 32.059399 -11.792600 27.599600 -5.824030 -0.673004 39.279202 11.315800 -47.518799 180.000000 42.692993 180.000000 -56.162701 -12.403300 -23.643600 7.816891 -3.502801 -31.492852 0.000000 0.000000 45.833000 -17.018060 4.917007 -3.943735 0.000000 0.000000 -26.577600 6.239133 6.766133 -20.431180 0.000000 0.000000 24.214500 26.420348 -6.901625 -6.668033 0.000000 0.000000 -19.309530 
-13.128331 8.996652 25.415931 -175.470138 -41.236015 -172.802560 2.816688 -5.588689 -4.613517 1.446233 4.548402 12.647587 0.000000 0.000000 0.000000 15.003674 -4.555746 -9.676431 -0.642312 6.668088 -86.537207 -23.701000 1.547630 5.524994 -41.677601 -10.524700 -45.077599 180.000000 -42.789001 180.000000 51.133301 31.411699 -12.406900 27.261200 -5.555200 -0.039001 39.251499 11.592800 -48.631100 -180.000000 42.584000 180.000000 -55.488499 -12.072200 -24.116899 7.619425 -3.489705 -31.459479 0.000000 0.000000 45.561100 -16.956806 4.659101 -3.934722 0.000000 0.000000 -26.775100 5.724286 6.854298 -21.247540 0.000000 0.000000 23.966499 26.616834 -6.543424 -6.303829 0.000000 0.000000 -19.282890 
-13.148476 9.002983 25.453186 -175.654209 -40.764796 -172.104512 2.861650 -5.446790 -4.991595 1.276645 4.668486 12.387848 0.000000 0.000000 0.000000 14.978330 -4.509661 -9.626543 -0.728799 6.693892 -86.379387 -23.626600 1.560340 5.915985 -41.398201 -10.642600 -45.325500 -180.000000 -43.871002 180.000000 49.005501 30.902700 -14.278400 27.140100 -5.293750 0.480011 39.394299 11.799600 -49.371601 180.000000 43.119003 180.000000 -53.854500 -12.278800 -25.361200 7.406600 -3.403449 -31.092723 0.000000 0.000000 45.254398 -16.876441 4.555475 -4.022930 0.000000 0.000000 -26.714600 5.220450 7.090823 -21.780695 0.000000 0.000000 23.627199 26.851848 -6.273217 -6.003177 0.000000 0.000000 -19.288470 
-13.176557 9.007122 25.487501 -175.768628 -40.293430 -171.631946 3.171838 -5.082152 -5.286903 0.676946 4.848523 11.774834 0.000000 0.000000 0.000000 15.214353 -4.613973 -9.108002 -0.864954 6.614894 -86.267913 -23.384500 1.395540 6.446991 -41.226700 -10.806300 -45.359299 -180.000000 -45.871994 180.000000 46.016499 30.487801 -16.223000 27.422800 -5.284800 0.867004 39.501701 11.881800 -49.555199 180.000000 43.962006 180.000000 -51.915501 -13.994300 -26.386700 7.232048 -3.328309 -30.482972 0.000000 0.000000 44.979900 -16.774198 4.586248 -4.173488 0.000000 0.000000 -26.813500 4.773078 7.286512 -22.163759 0.000000 0.000000 23.427299 27.072346 -5.993499 -5.759990 0.000000 0.000000 -19.232150 
-13.212767 9.010380 25.519086 -175.858152 -39.807993 -171.361825 3.285797 -4.990139 -5.753912 0.434596 4.896977 11.379991 0.000000 0.000000 0.000000 14.950449 -4.510192 -8.325650 -0.963429 6.467817 -86.059089 -23.347500 1.413800 6.760010 -41.169601 -10.910900 -45.209900 -180.000000 -48.862000 180.000000 42.584400 29.578699 -19.552000 27.399900 -4.970870 1.164001 39.894199 11.881600 -49.230000 180.000000 45.865005 180.000000 -49.849098 -14.694400 -28.306601 7.060379 -3.311542 -29.591917 0.000000 0.000000 44.666401 -16.584281 4.714558 -4.412458 0.000000 0.000000 -26.748900 4.324645 7.552002 -22.410498 0.000000 0.000000 23.397301 27.403555 -5.736428 -5.590585 0.000000 0.000000 -19.191100 
-13.256248 9.013868 25.547378 -175.906026 -39.325485 -171.386729 3.234137 -4.888481 -6.436712 0.558696 5.082758 11.479550 0.000000 0.000000 0.000000 14.898409 -4.679860 -7.693577 -1.235350 6.229333 -85.583429 -23.320101 1.099830 7.184998 -41.349201 -11.313700 -44.914501 180.000000 -52.742996 -180.000000 38.779499 29.080000 -22.730600 27.166201 -4.861360 0.941986 40.562302 11.767900 -48.321701 180.000000 48.651001 180.000000 -47.512798 -15.626000 -31.214600 6.919626 -3.421844 -28.338877 0.000000 0.000000 44.264099 -16.310380 4.791379 -4.619378 0.000000 0.000000 -26.777500 3.906577 7.882018 -22.393053 0.000000 0.000000 23.451099 27.692239 -5.574757 -5.457289 0.000000 0.000000 -19.215390 
-13.310125 9.016905 25.571986 -175.999631 -38.907836 -171.914726 3.451725 -4.752279 -6.597190 -0.089028 5.032031 10.996106 0.000000 0.000000 0.000000 14.930107 -4.569597 -6.326538 -1.466102 6.114219 -85.002088 -23.180300 0.946745 7.023010 -41.499001 -11.195400 -44.305000 -180.000000 -57.392998 180.000000 33.258099 29.043200 -27.604000 27.183300 -4.885420 0.894989 41.518398 11.780500 -47.029701 180.000000 52.677002 180.000000 -43.741402 -14.853200 -34.823898 6.735567 -3.893569 -26.447063 0.000000 0.000000 43.709000 -16.600325 4.572521 -4.779748 0.000000 0.000000 -26.642100 3.514560 8.055375 -21.773335 0.000000 0.000000 23.510200 28.060323 -5.273128 -5.382545 0.000000 0.000000 -19.096910 
-13.367706 9.017711 25.594764 -175.840124 -38.521563 -172.628468 3.561537 -4.732696 -7.217298 -0.126504 5.058463 10.951277 0.000000 0.000000 0.000000 14.875396 -4.633364 -4.651223 -1.916442 5.792251 -84.222206 -23.110701 0.575224 7.989014 -41.396599 -12.003500 -44.231201 180.000000 -63.068001 -180.000000 29.800400 28.897100 -32.563599 27.066401 -4.611640 1.821014 41.900299 12.363400 -46.506100 180.000000 56.872002 180.000000 -39.806301 -17.522800 -37.402302 6.723598 -4.311540 -24.497766 0.000000 0.000000 42.985401 -15.816507 4.728390 -4.443352 0.000000 0.000000 -27.026400 3.270789 8.481754 -21.172721 0.000000 0.000000 23.687300 28.575416 -5.156987 -5.369198 0.000000 0.000000 -19.101530 
-13.432562 9.017615 25.616238 -175.755718 -38.128434 -173.560913 3.747162 -4.617797 -7.771863 -0.490019 5.076514 10.896964 0.000000 0.000000 0.000000 15.135390 -4.784529 -2.564629 -2.500840 5.493798 -83.453177 -23.050501 0.202856 8.494995 -40.966499 -12.854400 -43.874298 -180.000000 -69.403999 -180.000000 28.169901 28.208099 -36.200600 27.007601 -4.552120 2.282990 42.623299 12.954500 -46.140499 180.000000 62.314003 180.000000 -31.871500 -15.995100 -42.174702 6.580398 -4.783971 -22.133965 0.000000 0.000000 41.824299 -15.954183 4.092299 -4.492878 0.000000 0.000000 -28.718700 3.004840 8.845839 -20.343069 0.000000 0.000000 24.008600 28.899160 -5.055449 -5.397861 0.000000 0.000000 -19.122680 
-13.504620 9.018849 25.636234 -175.829634 -37.717661 -174.575841 3.817267 -4.558633 -8.309432 -0.897445 5.069173 10.625138 0.000000 0.000000 0.000000 15.302931 -4.900201 0.600245 -3.053192 4.980304 -83.000115 -23.082500 -0.034774 9.018005 -40.131599 -14.207800 -44.011002 180.000000 -76.362999 -180.000000 25.121401 28.321699 -39.627300 27.019899 -4.467920 2.467987 43.126598 13.617700 -46.285999 -180.000000 68.165001 -180.000000 -19.962999 -15.442000 -50.983200 6.207399 -5.058046 -19.184813 0.000000 0.000000 39.170601 -15.336735 3.231977 -5.406824 0.000000 0.000000 -28.431000 2.647678 9.163468 -19.315488 0.000000 0.000000 24.364201 29.369703 -4.861203 -5.492920 0.000000 0.000000 -19.151990 
-13.581872 9.021470 25.660811 -176.167839 -37.279192 -175.505501 3.719458 -4.492956 -9.057527 -1.345268 5.146014 10.645104 0.000000 0.000000 0.000000 15.781113 -5.221383 4.187938 -3.932498 4.452105 -82.598774 -23.268000 -0.357987 9.201996 -38.781898 -15.369900 -44.115799 -180.000000 -83.370102 180.000000 18.830799 27.912500 -48.155701 26.821501 -4.308160 1.987000 43.522202 14.095800 -46.441200 180.000000 74.820000 180.000000 -7.155960 -11.934800 -63.435902 5.405103 -4.689782 -16.079084 0.000000 0.000000 36.004398 -15.107946 2.670941 -6.136292 0.000000 0.000000 -27.679300 2.083774 9.376633 -18.288223 0.000000 0.000000 24.852800 29.883608 -4.538456 -5.637333 0.000000 0.000000 -19.120900 
-13.663628 9.026744 25.690901 -176.735341 -36.884480 -176.536540 3.511442 -4.408673 -9.745887 -1.915674 5.265611 10.873944 0.000000 0.000000 0.000000 16.619069 -5.862082 8.033986 -5.308836 3.977192 -82.185136 -23.330000 -0.667020 8.755005 -37.253700 -16.581301 -43.907299 0.000000 -89.662102 0.000000 11.301500 26.856100 -58.003101 26.457001 -4.253760 0.971985 43.722900 14.627500 -46.239399 -180.000000 81.998199 -180.000000 1.525630 -7.152780 -72.507896 4.189411 -3.839827 -12.902562 0.000000 0.000000 33.004501 -14.527407 2.699071 -6.437172 0.000000 0.000000 -27.193300 1.315435 9.770909 -17.103365 0.000000 0.000000 25.483801 30.425896 -4.349585 -5.877187 0.000000 0.000000 -19.093850 
